<svg width="400" height="192" viewBox="0 0 400 192" fill="none" xmlns="http://www.w3.org/2000/svg">
  <defs>
    <linearGradient id="skyFamily" x1="0%" y1="0%" x2="0%" y2="100%">
      <stop offset="0%" style="stop-color:#87CEEB"/>
      <stop offset="100%" style="stop-color:#98FB98"/>
    </linearGradient>
    <linearGradient id="ground" x1="0%" y1="0%" x2="0%" y2="100%">
      <stop offset="0%" style="stop-color:#90EE90"/>
      <stop offset="100%" style="stop-color:#228B22"/>
    </linearGradient>
  </defs>
  
  <!-- Sky -->
  <rect width="400" height="120" fill="url(#skyFamily)"/>
  
  <!-- Ground -->
  <rect y="120" width="400" height="72" fill="url(#ground)"/>
  
  <!-- Sun -->
  <circle cx="350" cy="30" r="20" fill="#FFD700"/>
  
  <!-- Mountains -->
  <path d="M0 120 L80 60 L160 120 Z" fill="#8B7355"/>
  <path d="M120 120 L200 70 L280 120 Z" fill="#A0522D"/>
  <path d="M240 120 L320 80 L400 120 Z" fill="#8B7355"/>
  
  <!-- Family Figures -->
  <!-- Dad -->
  <circle cx="150" cy="140" r="8" fill="#FDBCB4"/>
  <rect x="145" y="148" width="10" height="20" fill="#4169E1"/>
  <rect x="143" y="168" width="6" height="15" fill="#8B4513"/>
  <rect x="151" y="168" width="6" height="15" fill="#8B4513"/>
  
  <!-- Mom -->
  <circle cx="180" cy="140" r="8" fill="#FDBCB4"/>
  <rect x="175" y="148" width="10" height="20" fill="#FF69B4"/>
  <rect x="173" y="168" width="6" height="15" fill="#8B4513"/>
  <rect x="181" y="168" width="6" height="15" fill="#8B4513"/>
  
  <!-- Child 1 -->
  <circle cx="200" cy="150" r="6" fill="#FDBCB4"/>
  <rect x="196" y="156" width="8" height="15" fill="#32CD32"/>
  <rect x="195" y="171" width="4" height="10" fill="#8B4513"/>
  <rect x="201" y="171" width="4" height="10" fill="#8B4513"/>
  
  <!-- Child 2 -->
  <circle cx="220" cy="150" r="6" fill="#FDBCB4"/>
  <rect x="216" y="156" width="8" height="15" fill="#FF6347"/>
  <rect x="215" y="171" width="4" height="10" fill="#8B4513"/>
  <rect x="221" y="171" width="4" height="10" fill="#8B4513"/>
  
  <!-- Playground Equipment -->
  <!-- Swing Set -->
  <rect x="80" y="140" width="4" height="40" fill="#8B4513"/>
  <rect x="110" y="140" width="4" height="40" fill="#8B4513"/>
  <rect x="80" y="140" width="34" height="4" fill="#8B4513"/>
  <line x1="90" y1="144" x2="90" y2="165" stroke="#654321" stroke-width="2"/>
  <line x1="100" y1="144" x2="100" y2="165" stroke="#654321" stroke-width="2"/>
  <rect x="85" y="165" width="10" height="3" fill="#8B4513"/>
  <rect x="95" y="165" width="10" height="3" fill="#8B4513"/>
  
  <!-- Trees -->
  <rect x="30" y="150" width="8" height="30" fill="#8B4513"/>
  <circle cx="34" cy="145" r="15" fill="#228B22"/>
  
  <rect x="320" y="150" width="8" height="30" fill="#8B4513"/>
  <circle cx="324" cy="145" r="15" fill="#228B22"/>
  
  <!-- Clouds -->
  <ellipse cx="100" cy="40" rx="20" ry="10" fill="white" opacity="0.8"/>
  <ellipse cx="250" cy="50" rx="25" ry="12" fill="white" opacity="0.8"/>
  
  <!-- Fun Text -->
  <text x="200" y="25" text-anchor="middle" fill="#FF6347" font-family="Arial" font-size="14" font-weight="bold">FAMILY ADVENTURE</text>
</svg>
